<mxfile host="app.diagrams.net" modified="2020-08-10T12:47:23.317Z" agent="5.0 (Windows NT 10.0; Win64; x64) AppleWebKit/537.36 (KHTML, like Gecko) Chrome/83.0.4103.106 Safari/537.36" etag="9Zh-PnWZFxLmLfA0SbT4" version="13.6.2" type="github">
  <diagram id="R2lEEEUBdFMjLlhIrx00" name="Page-1">
    <mxGraphModel dx="782" dy="420" grid="1" gridSize="10" guides="1" tooltips="1" connect="1" arrows="1" fold="1" page="1" pageScale="1" pageWidth="850" pageHeight="1100" math="0" shadow="0" extFonts="Permanent Marker^https://fonts.googleapis.com/css?family=Permanent+Marker">
      <root>
        <mxCell id="0" />
        <mxCell id="1" parent="0" />
        <mxCell id="_jjBUUrDdzlVQSohrS0y-12" style="edgeStyle=none;rounded=0;orthogonalLoop=1;jettySize=auto;html=1;exitX=0.5;exitY=0;exitDx=0;exitDy=0;entryX=0.5;entryY=1;entryDx=0;entryDy=0;endArrow=none;endFill=0;" edge="1" parent="1" source="_jjBUUrDdzlVQSohrS0y-1" target="_jjBUUrDdzlVQSohrS0y-11">
          <mxGeometry relative="1" as="geometry" />
        </mxCell>
        <mxCell id="_jjBUUrDdzlVQSohrS0y-13" style="edgeStyle=none;rounded=0;orthogonalLoop=1;jettySize=auto;html=1;exitX=0.5;exitY=0;exitDx=0;exitDy=0;entryX=0.5;entryY=1;entryDx=0;entryDy=0;endArrow=none;endFill=0;" edge="1" parent="1" source="_jjBUUrDdzlVQSohrS0y-1" target="_jjBUUrDdzlVQSohrS0y-10">
          <mxGeometry relative="1" as="geometry" />
        </mxCell>
        <mxCell id="_jjBUUrDdzlVQSohrS0y-14" style="edgeStyle=none;rounded=0;orthogonalLoop=1;jettySize=auto;html=1;exitX=0;exitY=0.5;exitDx=0;exitDy=0;entryX=1;entryY=0.5;entryDx=0;entryDy=0;endArrow=none;endFill=0;" edge="1" parent="1" source="_jjBUUrDdzlVQSohrS0y-1" target="_jjBUUrDdzlVQSohrS0y-9">
          <mxGeometry relative="1" as="geometry" />
        </mxCell>
        <mxCell id="_jjBUUrDdzlVQSohrS0y-15" style="edgeStyle=none;rounded=0;orthogonalLoop=1;jettySize=auto;html=1;exitX=0.5;exitY=1;exitDx=0;exitDy=0;entryX=0.5;entryY=0;entryDx=0;entryDy=0;endArrow=none;endFill=0;" edge="1" parent="1" source="_jjBUUrDdzlVQSohrS0y-1" target="_jjBUUrDdzlVQSohrS0y-2">
          <mxGeometry relative="1" as="geometry" />
        </mxCell>
        <mxCell id="_jjBUUrDdzlVQSohrS0y-1" value="ROYALMEMBER" style="rounded=1;arcSize=10;whiteSpace=wrap;html=1;align=center;" vertex="1" parent="1">
          <mxGeometry x="143" y="190" width="100" height="40" as="geometry" />
        </mxCell>
        <mxCell id="_jjBUUrDdzlVQSohrS0y-16" style="edgeStyle=none;rounded=0;orthogonalLoop=1;jettySize=auto;html=1;exitX=0.5;exitY=1;exitDx=0;exitDy=0;entryX=0.5;entryY=0;entryDx=0;entryDy=0;endArrow=none;endFill=0;" edge="1" parent="1" source="_jjBUUrDdzlVQSohrS0y-2" target="_jjBUUrDdzlVQSohrS0y-3">
          <mxGeometry relative="1" as="geometry" />
        </mxCell>
        <mxCell id="_jjBUUrDdzlVQSohrS0y-17" style="edgeStyle=none;rounded=0;orthogonalLoop=1;jettySize=auto;html=1;exitX=0.5;exitY=1;exitDx=0;exitDy=0;entryX=0.58;entryY=0.05;entryDx=0;entryDy=0;entryPerimeter=0;endArrow=none;endFill=0;" edge="1" parent="1" source="_jjBUUrDdzlVQSohrS0y-2" target="_jjBUUrDdzlVQSohrS0y-4">
          <mxGeometry relative="1" as="geometry" />
        </mxCell>
        <mxCell id="_jjBUUrDdzlVQSohrS0y-2" value="&lt;u&gt;Key&lt;/u&gt;" style="ellipse;whiteSpace=wrap;html=1;align=center;" vertex="1" parent="1">
          <mxGeometry x="143" y="250" width="100" height="40" as="geometry" />
        </mxCell>
        <mxCell id="_jjBUUrDdzlVQSohrS0y-3" value="ID" style="ellipse;whiteSpace=wrap;html=1;align=center;" vertex="1" parent="1">
          <mxGeometry x="63" y="310" width="100" height="40" as="geometry" />
        </mxCell>
        <mxCell id="_jjBUUrDdzlVQSohrS0y-18" style="edgeStyle=none;rounded=0;orthogonalLoop=1;jettySize=auto;html=1;exitX=0.5;exitY=1;exitDx=0;exitDy=0;entryX=0.5;entryY=0;entryDx=0;entryDy=0;endArrow=none;endFill=0;" edge="1" parent="1" source="_jjBUUrDdzlVQSohrS0y-4" target="_jjBUUrDdzlVQSohrS0y-6">
          <mxGeometry relative="1" as="geometry" />
        </mxCell>
        <mxCell id="_jjBUUrDdzlVQSohrS0y-19" style="edgeStyle=none;rounded=0;orthogonalLoop=1;jettySize=auto;html=1;entryX=0.5;entryY=0;entryDx=0;entryDy=0;endArrow=none;endFill=0;" edge="1" parent="1" source="_jjBUUrDdzlVQSohrS0y-4" target="_jjBUUrDdzlVQSohrS0y-7">
          <mxGeometry relative="1" as="geometry" />
        </mxCell>
        <mxCell id="_jjBUUrDdzlVQSohrS0y-20" style="edgeStyle=none;rounded=0;orthogonalLoop=1;jettySize=auto;html=1;exitX=0.5;exitY=1;exitDx=0;exitDy=0;entryX=0.5;entryY=0;entryDx=0;entryDy=0;endArrow=none;endFill=0;" edge="1" parent="1" source="_jjBUUrDdzlVQSohrS0y-4" target="_jjBUUrDdzlVQSohrS0y-8">
          <mxGeometry relative="1" as="geometry" />
        </mxCell>
        <mxCell id="_jjBUUrDdzlVQSohrS0y-4" value="Full_name" style="ellipse;whiteSpace=wrap;html=1;align=center;" vertex="1" parent="1">
          <mxGeometry x="223" y="310" width="100" height="40" as="geometry" />
        </mxCell>
        <mxCell id="_jjBUUrDdzlVQSohrS0y-6" value="First_name" style="ellipse;whiteSpace=wrap;html=1;align=center;" vertex="1" parent="1">
          <mxGeometry x="113" y="380" width="100" height="40" as="geometry" />
        </mxCell>
        <mxCell id="_jjBUUrDdzlVQSohrS0y-7" value="Last_name" style="ellipse;whiteSpace=wrap;html=1;align=center;" vertex="1" parent="1">
          <mxGeometry x="223" y="380" width="100" height="40" as="geometry" />
        </mxCell>
        <mxCell id="_jjBUUrDdzlVQSohrS0y-8" value="Suffix" style="ellipse;whiteSpace=wrap;html=1;align=center;" vertex="1" parent="1">
          <mxGeometry x="333" y="380" width="100" height="40" as="geometry" />
        </mxCell>
        <mxCell id="_jjBUUrDdzlVQSohrS0y-9" value="Birthday" style="ellipse;whiteSpace=wrap;html=1;align=center;" vertex="1" parent="1">
          <mxGeometry x="3" y="190" width="100" height="40" as="geometry" />
        </mxCell>
        <mxCell id="_jjBUUrDdzlVQSohrS0y-10" value="Emai&lt;span style=&quot;color: rgba(0 , 0 , 0 , 0) ; font-family: monospace ; font-size: 0px&quot;&gt;3CmxGraphModel%3E%3Croot%3E%3CmxCell%20id%3D%220%22%2F%3E%3CmxCell%20id%3D%221%22%20parent%3D%220%22%2F%3E%3CmxCell%20id%3D%222%22%20value%3D%22Birthday%22%20style%3D%22ellipse%3BwhiteSpace%3Dwrap%3Bhtml%3D1%3Balign%3Dcenter%3B%22%20vertex%3D%221%22%20parent%3D%221%22%3E%3CmxGeometry%20x%3D%22170%22%20y%3D%22190%22%20width%3D%22100%22%20height%3D%2240%22%20as%3D%22geometry%22%2F%3E%3C%2FmxCell%3E%3C%2Froot%3E%3C%2FmxGraphModel%3&lt;/span&gt;l&lt;span style=&quot;color: rgba(0 , 0 , 0 , 0) ; font-family: monospace ; font-size: 0px&quot;&gt;%3CmxGraphModel%3E%3Croot%3E%3CmxCell%20id%3D%220%22%2F%3E%3CmxCell%20id%3D%221%22%20parent%3D%220%22%2F%3E%3CmxCell%20id%3D%222%22%20value%3D%22Birthday%22%20style%3D%22ellipse%3BwhiteSpace%3Dwrap%3Bhtml%3D1%3Balign%3Dcenter%3B%22%20vertex%3D%221%22%20parent%3D%221%22%3E%3CmxGeometry%20x%3D%22170%22%20y%3D%22190%22%20width%3D%22100%22%20height%3D%2240%22%20as%3D%22geometry%22%2F%3E%3C%2FmxCell%3E%3C%2Froot%3E%3C%2FmxGraphModel%3E&lt;/span&gt;" style="ellipse;whiteSpace=wrap;html=1;align=center;" vertex="1" parent="1">
          <mxGeometry x="3" y="120" width="100" height="40" as="geometry" />
        </mxCell>
        <mxCell id="_jjBUUrDdzlVQSohrS0y-11" value="Whatsapp_id" style="ellipse;whiteSpace=wrap;html=1;align=center;" vertex="1" parent="1">
          <mxGeometry x="143" y="120" width="100" height="40" as="geometry" />
        </mxCell>
        <mxCell id="_jjBUUrDdzlVQSohrS0y-31" style="edgeStyle=none;rounded=0;orthogonalLoop=1;jettySize=auto;html=1;exitX=0.5;exitY=1;exitDx=0;exitDy=0;entryX=0.5;entryY=0;entryDx=0;entryDy=0;endArrow=none;endFill=0;" edge="1" parent="1" source="_jjBUUrDdzlVQSohrS0y-21" target="_jjBUUrDdzlVQSohrS0y-29">
          <mxGeometry relative="1" as="geometry" />
        </mxCell>
        <mxCell id="_jjBUUrDdzlVQSohrS0y-32" style="edgeStyle=none;rounded=0;orthogonalLoop=1;jettySize=auto;html=1;exitX=1;exitY=0.5;exitDx=0;exitDy=0;entryX=0;entryY=0.5;entryDx=0;entryDy=0;endArrow=none;endFill=0;" edge="1" parent="1" source="_jjBUUrDdzlVQSohrS0y-21" target="_jjBUUrDdzlVQSohrS0y-22">
          <mxGeometry relative="1" as="geometry" />
        </mxCell>
        <mxCell id="_jjBUUrDdzlVQSohrS0y-33" style="edgeStyle=none;rounded=0;orthogonalLoop=1;jettySize=auto;html=1;exitX=1;exitY=0.5;exitDx=0;exitDy=0;entryX=0.5;entryY=0;entryDx=0;entryDy=0;endArrow=none;endFill=0;" edge="1" parent="1" source="_jjBUUrDdzlVQSohrS0y-21" target="_jjBUUrDdzlVQSohrS0y-30">
          <mxGeometry relative="1" as="geometry" />
        </mxCell>
        <mxCell id="_jjBUUrDdzlVQSohrS0y-34" style="edgeStyle=none;rounded=0;orthogonalLoop=1;jettySize=auto;html=1;exitX=1;exitY=0.5;exitDx=0;exitDy=0;entryX=0.5;entryY=1;entryDx=0;entryDy=0;endArrow=none;endFill=0;" edge="1" parent="1" source="_jjBUUrDdzlVQSohrS0y-21" target="_jjBUUrDdzlVQSohrS0y-24">
          <mxGeometry relative="1" as="geometry" />
        </mxCell>
        <mxCell id="_jjBUUrDdzlVQSohrS0y-35" style="edgeStyle=none;rounded=0;orthogonalLoop=1;jettySize=auto;html=1;exitX=0.5;exitY=0;exitDx=0;exitDy=0;entryX=0.5;entryY=1;entryDx=0;entryDy=0;endArrow=none;endFill=0;" edge="1" parent="1" source="_jjBUUrDdzlVQSohrS0y-21" target="_jjBUUrDdzlVQSohrS0y-27">
          <mxGeometry relative="1" as="geometry" />
        </mxCell>
        <mxCell id="_jjBUUrDdzlVQSohrS0y-21" value="TRIP" style="whiteSpace=wrap;html=1;align=center;" vertex="1" parent="1">
          <mxGeometry x="611" y="190" width="100" height="40" as="geometry" />
        </mxCell>
        <mxCell id="_jjBUUrDdzlVQSohrS0y-22" value="&lt;u&gt;Name&lt;/u&gt;" style="ellipse;whiteSpace=wrap;html=1;align=center;" vertex="1" parent="1">
          <mxGeometry x="741" y="190" width="100" height="40" as="geometry" />
        </mxCell>
        <mxCell id="_jjBUUrDdzlVQSohrS0y-24" value="&lt;div&gt;Description&lt;/div&gt;" style="ellipse;whiteSpace=wrap;html=1;align=center;" vertex="1" parent="1">
          <mxGeometry x="741" y="130" width="100" height="40" as="geometry" />
        </mxCell>
        <mxCell id="_jjBUUrDdzlVQSohrS0y-27" value="Destination" style="ellipse;whiteSpace=wrap;html=1;align=center;" vertex="1" parent="1">
          <mxGeometry x="611" y="130" width="100" height="40" as="geometry" />
        </mxCell>
        <mxCell id="_jjBUUrDdzlVQSohrS0y-29" value="Cost" style="ellipse;whiteSpace=wrap;html=1;align=center;" vertex="1" parent="1">
          <mxGeometry x="611" y="257" width="100" height="40" as="geometry" />
        </mxCell>
        <mxCell id="_jjBUUrDdzlVQSohrS0y-30" value="Itinerary" style="ellipse;whiteSpace=wrap;html=1;align=center;" vertex="1" parent="1">
          <mxGeometry x="741" y="257" width="100" height="40" as="geometry" />
        </mxCell>
        <mxCell id="_jjBUUrDdzlVQSohrS0y-43" style="edgeStyle=none;rounded=0;orthogonalLoop=1;jettySize=auto;html=1;exitX=0.5;exitY=0;exitDx=0;exitDy=0;entryX=0.5;entryY=1;entryDx=0;entryDy=0;endArrow=none;endFill=0;" edge="1" parent="1" source="_jjBUUrDdzlVQSohrS0y-36" target="_jjBUUrDdzlVQSohrS0y-40">
          <mxGeometry relative="1" as="geometry" />
        </mxCell>
        <mxCell id="_jjBUUrDdzlVQSohrS0y-44" style="edgeStyle=none;rounded=0;orthogonalLoop=1;jettySize=auto;html=1;exitX=0.5;exitY=0;exitDx=0;exitDy=0;entryX=0.5;entryY=1;entryDx=0;entryDy=0;endArrow=none;endFill=0;" edge="1" parent="1" source="_jjBUUrDdzlVQSohrS0y-36" target="_jjBUUrDdzlVQSohrS0y-41">
          <mxGeometry relative="1" as="geometry" />
        </mxCell>
        <mxCell id="_jjBUUrDdzlVQSohrS0y-45" style="edgeStyle=none;rounded=0;orthogonalLoop=1;jettySize=auto;html=1;exitX=0.5;exitY=1;exitDx=0;exitDy=0;entryX=0.5;entryY=0;entryDx=0;entryDy=0;endArrow=none;endFill=0;" edge="1" parent="1" source="_jjBUUrDdzlVQSohrS0y-36" target="_jjBUUrDdzlVQSohrS0y-42">
          <mxGeometry relative="1" as="geometry" />
        </mxCell>
        <mxCell id="_jjBUUrDdzlVQSohrS0y-36" value="LUGGAGE" style="shape=ext;margin=3;double=1;whiteSpace=wrap;html=1;align=center;" vertex="1" parent="1">
          <mxGeometry x="378" y="190" width="100" height="40" as="geometry" />
        </mxCell>
        <mxCell id="_jjBUUrDdzlVQSohrS0y-62" style="edgeStyle=none;rounded=0;orthogonalLoop=1;jettySize=auto;html=1;exitX=0.5;exitY=0;exitDx=0;exitDy=0;entryX=0.5;entryY=1;entryDx=0;entryDy=0;endArrow=none;endFill=0;" edge="1" parent="1" source="_jjBUUrDdzlVQSohrS0y-37" target="_jjBUUrDdzlVQSohrS0y-57">
          <mxGeometry relative="1" as="geometry" />
        </mxCell>
        <mxCell id="_jjBUUrDdzlVQSohrS0y-37" value="PACK" style="shape=rhombus;double=1;perimeter=rhombusPerimeter;whiteSpace=wrap;html=1;align=center;" vertex="1" parent="1">
          <mxGeometry x="263" y="190" width="80" height="40" as="geometry" />
        </mxCell>
        <mxCell id="_jjBUUrDdzlVQSohrS0y-39" value="TAKEN" style="shape=rhombus;double=1;perimeter=rhombusPerimeter;whiteSpace=wrap;html=1;align=center;" vertex="1" parent="1">
          <mxGeometry x="511" y="190" width="80" height="40" as="geometry" />
        </mxCell>
        <mxCell id="_jjBUUrDdzlVQSohrS0y-40" value="Number" style="ellipse;whiteSpace=wrap;html=1;align=center;" vertex="1" parent="1">
          <mxGeometry x="337" y="140" width="75" height="30" as="geometry" />
        </mxCell>
        <mxCell id="_jjBUUrDdzlVQSohrS0y-41" value="Number" style="ellipse;whiteSpace=wrap;html=1;align=center;" vertex="1" parent="1">
          <mxGeometry x="444" y="140" width="75" height="30" as="geometry" />
        </mxCell>
        <mxCell id="_jjBUUrDdzlVQSohrS0y-42" value="Number" style="ellipse;whiteSpace=wrap;html=1;align=center;" vertex="1" parent="1">
          <mxGeometry x="390.5" y="260" width="75" height="30" as="geometry" />
        </mxCell>
        <mxCell id="_jjBUUrDdzlVQSohrS0y-46" value="" style="shape=link;html=1;rounded=0;endArrow=none;endFill=0;" edge="1" parent="1">
          <mxGeometry relative="1" as="geometry">
            <mxPoint x="480" y="209.5" as="sourcePoint" />
            <mxPoint x="510" y="210" as="targetPoint" />
          </mxGeometry>
        </mxCell>
        <mxCell id="_jjBUUrDdzlVQSohrS0y-47" value="N" style="resizable=0;html=1;align=right;verticalAlign=bottom;" connectable="0" vertex="1" parent="_jjBUUrDdzlVQSohrS0y-46">
          <mxGeometry x="1" relative="1" as="geometry" />
        </mxCell>
        <mxCell id="_jjBUUrDdzlVQSohrS0y-50" value="" style="endArrow=none;html=1;rounded=0;exitX=1;exitY=0.5;exitDx=0;exitDy=0;" edge="1" parent="1" source="_jjBUUrDdzlVQSohrS0y-1">
          <mxGeometry relative="1" as="geometry">
            <mxPoint x="360" y="330" as="sourcePoint" />
            <mxPoint x="260" y="210" as="targetPoint" />
          </mxGeometry>
        </mxCell>
        <mxCell id="_jjBUUrDdzlVQSohrS0y-51" value="1" style="resizable=0;html=1;align=right;verticalAlign=bottom;" connectable="0" vertex="1" parent="_jjBUUrDdzlVQSohrS0y-50">
          <mxGeometry x="1" relative="1" as="geometry" />
        </mxCell>
        <mxCell id="_jjBUUrDdzlVQSohrS0y-52" value="" style="shape=link;html=1;rounded=0;endArrow=none;endFill=0;entryX=1;entryY=0.5;entryDx=0;entryDy=0;exitX=0;exitY=0.5;exitDx=0;exitDy=0;" edge="1" parent="1" source="_jjBUUrDdzlVQSohrS0y-36" target="_jjBUUrDdzlVQSohrS0y-37">
          <mxGeometry relative="1" as="geometry">
            <mxPoint x="360" y="330" as="sourcePoint" />
            <mxPoint x="520" y="330" as="targetPoint" />
          </mxGeometry>
        </mxCell>
        <mxCell id="_jjBUUrDdzlVQSohrS0y-53" value="N" style="resizable=0;html=1;align=right;verticalAlign=bottom;" connectable="0" vertex="1" parent="_jjBUUrDdzlVQSohrS0y-52">
          <mxGeometry x="1" relative="1" as="geometry" />
        </mxCell>
        <mxCell id="_jjBUUrDdzlVQSohrS0y-54" value="" style="endArrow=none;html=1;rounded=0;entryX=1;entryY=0.5;entryDx=0;entryDy=0;" edge="1" parent="1" target="_jjBUUrDdzlVQSohrS0y-39">
          <mxGeometry relative="1" as="geometry">
            <mxPoint x="610" y="210" as="sourcePoint" />
            <mxPoint x="520" y="330" as="targetPoint" />
          </mxGeometry>
        </mxCell>
        <mxCell id="_jjBUUrDdzlVQSohrS0y-55" value="1" style="resizable=0;html=1;align=right;verticalAlign=bottom;" connectable="0" vertex="1" parent="_jjBUUrDdzlVQSohrS0y-54">
          <mxGeometry x="1" relative="1" as="geometry" />
        </mxCell>
        <mxCell id="_jjBUUrDdzlVQSohrS0y-56" value="is that ever trip must have a luggage? &lt;br&gt;there is no clue about this,&lt;br&gt;&amp;nbsp;so the defalut is partial" style="ellipse;shape=cloud;whiteSpace=wrap;html=1;align=center;" vertex="1" parent="1">
          <mxGeometry x="540" y="320" width="259" height="190" as="geometry" />
        </mxCell>
        <mxCell id="_jjBUUrDdzlVQSohrS0y-59" style="edgeStyle=none;rounded=0;orthogonalLoop=1;jettySize=auto;html=1;exitX=0.5;exitY=0;exitDx=0;exitDy=0;entryX=0.5;entryY=1;entryDx=0;entryDy=0;endArrow=none;endFill=0;" edge="1" parent="1" source="_jjBUUrDdzlVQSohrS0y-57" target="_jjBUUrDdzlVQSohrS0y-58">
          <mxGeometry relative="1" as="geometry" />
        </mxCell>
        <mxCell id="_jjBUUrDdzlVQSohrS0y-61" style="edgeStyle=none;rounded=0;orthogonalLoop=1;jettySize=auto;html=1;exitX=0.5;exitY=0;exitDx=0;exitDy=0;entryX=0.5;entryY=1;entryDx=0;entryDy=0;endArrow=none;endFill=0;" edge="1" parent="1" source="_jjBUUrDdzlVQSohrS0y-57" target="_jjBUUrDdzlVQSohrS0y-60">
          <mxGeometry relative="1" as="geometry" />
        </mxCell>
        <mxCell id="_jjBUUrDdzlVQSohrS0y-57" value="Completetrip" style="ellipse;whiteSpace=wrap;html=1;align=center;" vertex="1" parent="1">
          <mxGeometry x="253" y="90" width="100" height="40" as="geometry" />
        </mxCell>
        <mxCell id="_jjBUUrDdzlVQSohrS0y-58" value="Returndate" style="ellipse;whiteSpace=wrap;html=1;align=center;" vertex="1" parent="1">
          <mxGeometry x="190" y="30" width="100" height="40" as="geometry" />
        </mxCell>
        <mxCell id="_jjBUUrDdzlVQSohrS0y-60" value="Reason" style="ellipse;whiteSpace=wrap;html=1;align=center;" vertex="1" parent="1">
          <mxGeometry x="320" y="30" width="100" height="40" as="geometry" />
        </mxCell>
      </root>
    </mxGraphModel>
  </diagram>
</mxfile>
